<svg xml:space="preserve" style="enable-background:new 0 0 200 200;" viewBox="0 0 200 200" y="0px" x="0px" xmlns:xlink="http://www.w3.org/1999/xlink" xmlns="http://www.w3.org/2000/svg" id="Layer_1" version="1.1">
<style type="text/css">
	.st0{fill:#E9F6FF;}
	.st1{fill:none;stroke:#E9F6FF;stroke-width:15.5188;stroke-linejoin:round;stroke-miterlimit:10;}
</style>
<g id="path1701-7">
	<path d="M38.03,154.35c-2.86,0-5.18,2.32-5.18,5.18c0,2.86,2.32,5.18,5.18,5.18c2.86,0,5.18-2.32,5.18-5.18
		C43.21,156.67,40.89,154.35,38.03,154.35L38.03,154.35z" class="st0"></path>
</g>
<path d="M27.68,141.41h144.97c4.3,0,7.77,3.46,7.77,7.77v20.71c0,4.3-3.46,7.77-7.77,7.77H27.68
	c-4.3,0-7.77-3.46-7.77-7.77v-20.71C19.91,144.87,23.38,141.41,27.68,141.41z" class="st1" id="rect1706-0"></path>
<path d="M19.91,128.79V24.91c0-4.3,3.46-7.77,7.77-7.77h20.71c4.3,0,7.77,3.46,7.77,7.77v65.67" class="st1" id="path1709-6"></path>
<path d="M45.09,114.3l44.56-80.42c2.15-3.73,6.88-4.99,10.61-2.84l17.94,10.35
	c3.73,2.15,4.99,6.88,2.84,10.61l-38.82,60.11" class="st1" id="path1711-0"></path>
<path d="M58.82,125.26l86.73-48.73c3.73-2.15,8.46-0.88,10.61,2.84l10.35,17.94
	c2.15,3.73,0.88,8.46-2.84,10.61L96,143.59" class="st1" id="path1713-3"></path>
</svg>
