<svg viewBox="0 0 200 200" xmlns="http://www.w3.org/2000/svg" id="Layer_1"><defs><style>.cls-1{fill:#57a1d1;stroke-width:0px;}</style></defs><path d="m107.67,178H27.74c-1.31,0-2.37-1.06-2.37-2.37v-51.65c0-1.31,1.06-2.37,2.37-2.37h79.93c1.31,0,2.37,1.06,2.37,2.37v51.65c0,1.31-1.06,2.37-2.37,2.37Zm-77.56-4.73h75.19v-46.91H30.11v46.91Z" class="cls-1"></path><path d="m155.94,178h-35.45c-1.31,0-2.37-1.06-2.37-2.37v-51.65c0-1.31,1.06-2.37,2.37-2.37h35.45c1.31,0,2.37,1.06,2.37,2.37v51.65c0,1.31-1.06,2.37-2.37,2.37Zm-33.08-4.73h30.71v-46.91h-30.71v46.91Z" class="cls-1"></path><path d="m83.47,113.37H27.74c-1.31,0-2.37-1.06-2.37-2.37v-55.72c0-1.31,1.06-2.37,2.37-2.37h55.73c1.31,0,2.37,1.06,2.37,2.37v55.72c0,1.31-1.06,2.37-2.37,2.37Zm-53.36-4.73h50.99v-50.99H30.11v50.99Z" class="cls-1"></path><path d="m174.22,93.74l-10.35-10.35c-.64-.65-.49-1.73.3-2.18l9.56-5.43c1.01-.57.9-2.06-.18-2.48l-13.47-5.24V24.42c0-1.34-1.09-2.42-2.42-2.42h-61.79c-1.34,0-2.42,1.09-2.42,2.42v86.58c0,1.34,1.09,2.41,2.42,2.41h61.79c1.34,0,2.42-1.08,2.42-2.41v-19.17l8.03,8.03c.54.54,1.42.54,1.96,0l4.17-4.17c.54-.54.54-1.42,0-1.95Zm-19-27.58l-21.15-8.24c-1.11-.44-2.22.67-1.78,1.78l15.36,39.47c.43,1.09,1.92,1.19,2.49.18l5.08-8.95v18.16h-56.96V26.85h56.96v39.31Z" class="cls-1"></path><path d="m128.18,54.79c-.69,0-1.37-.28-1.87-.84l-5.45-6.12c-.92-1.03-.83-2.61.21-3.53,1.03-.92,2.61-.83,3.53.21l5.45,6.12c.92,1.03.83,2.61-.21,3.53-.48.42-1.07.63-1.66.63Z" class="cls-1"></path><path d="m126.92,65.52h0l-7.78-.02c-1.38,0-2.5-1.13-2.49-2.51,0-1.38,1.12-2.49,2.5-2.49h0l7.78.02c1.38,0,2.5,1.13,2.49,2.51,0,1.38-1.12,2.49-2.5,2.49Z" class="cls-1"></path><path d="m138.51,55.5c-.09,0-.19,0-.28-.02-1.37-.15-2.36-1.39-2.2-2.76l.87-7.74c.15-1.37,1.39-2.36,2.76-2.2,1.37.15,2.36,1.39,2.2,2.76l-.87,7.74c-.14,1.28-1.23,2.22-2.48,2.22Z" class="cls-1"></path></svg>