<svg viewBox="0 0 200 200" xmlns="http://www.w3.org/2000/svg" id="Layer_1"><defs><style>.cls-1{stroke-width:5px;}.cls-1,.cls-2,.cls-3,.cls-4{fill:#fff;stroke:#fff;stroke-miterlimit:10;}.cls-2{stroke-width:4.84px;}.cls-3{stroke-width:4.91px;}.cls-4{stroke-width:4.93px;}</style></defs><path d="M170.85,111.91h-64.83c-1.4,0-2.54-1.15-2.54-2.57V17.57c0-1.42,1.14-2.57,2.54-2.57h64.83c1.4,0,2.54,1.15,2.54,2.57v91.78c0,1.42-1.14,2.57-2.54,2.57ZM108.57,106.78h59.74V20.14h-59.74v86.64Z" class="cls-2"></path><path d="M113.06,185H29.15c-1.41,0-2.54-1.18-2.54-2.64v-56.26c0-1.46,1.14-2.64,2.54-2.64h83.91c1.41,0,2.54,1.18,2.54,2.64v56.26c0,1.46-1.14,2.64-2.54,2.64ZM31.69,179.72h78.82v-50.98H31.69v50.98Z" class="cls-3"></path><path d="M168.9,185h-38.62c-1.46,0-2.64-1.18-2.64-2.64v-56.26c0-1.46,1.18-2.64,2.64-2.64h38.62c1.46,0,2.64,1.18,2.64,2.64v56.26c0,1.46-1.18,2.64-2.64,2.64ZM132.93,179.72h33.34v-50.98h-33.34v50.98Z" class="cls-1"></path><path d="M89.95,111.91H29.24c-1.46,0-2.64-1.15-2.64-2.57v-59.07c0-1.42,1.18-2.57,2.64-2.57h60.7c1.46,0,2.64,1.15,2.64,2.57v59.07c0,1.42-1.18,2.57-2.64,2.57ZM31.88,106.78h55.42v-53.93H31.88v53.93Z" class="cls-4"></path></svg>