<svg xml:space="preserve" style="enable-background:new 0 0 200 200;" viewBox="0 0 200 200" y="0px" x="0px" xmlns:xlink="http://www.w3.org/1999/xlink" xmlns="http://www.w3.org/2000/svg" id="Layer_1" version="1.1">
<style type="text/css">
	.st0{fill:none;stroke:#E9F6FF;stroke-width:16;stroke-linejoin:round;stroke-miterlimit:10;}
</style>
<g>
	<path d="M75.78,87.17c6.59-15.01,23.99-28.12,45.35-38.21c35.27-16.68,44.56-18.98,59.89-31.45
		c0,0,13.98,36.78-2.78,69.66c-9.77,19.14-29.94,36.93-69.42,45.43l17.08,9.21c-16.12,32.25-44.56,32.72-66.72,26.77
		c-14.14-3.81-22.32-8.66-30.98-12.87c0-0.24-0.08-0.48-0.08-0.71c-1.35-8.82-4.05-18.51-3.1-31.93
		c0.79-10.96,4.05-24.62,11.99-35.9c7.7-10.88,19.94-19.54,38.52-21.21l-0.48,21.21v1.67C75.31,88.28,75.54,87.73,75.78,87.17" class="st0"></path>
	<path d="M13.51,182.49c0,0,0.56-1.59,1.67-4.29c3.42-8.34,7.78-16.12,12.95-23.19c15.49-21.13,38.52-36.06,64.73-41.86
		c20.25-4.45,33.04-13.58,43.85-25.97c7.23-8.18,13.58-17.79,20.73-28.36" class="st0"></path>
</g>
</svg>
