<svg viewBox="0 0 200 200" xmlns="http://www.w3.org/2000/svg" id="Layer_1"><defs><style>.cls-1{fill:#57a1d1;stroke-width:0px;}</style></defs><path d="m144.24,77.97h-78.25c-1.48,0-2.68-1.2-2.68-2.68s1.2-2.68,2.68-2.68h78.25c1.48,0,2.68,1.2,2.68,2.68s-1.2,2.68-2.68,2.68Z" class="cls-1"></path><path d="m122.55,100.84h-49.46c-1.48,0-2.68-1.2-2.68-2.68s1.2-2.68,2.68-2.68h49.46c1.48,0,2.68,1.2,2.68,2.68s-1.2,2.68-2.68,2.68Z" class="cls-1"></path><path d="m167.68,48.27c-.5-.57-1.23-.89-1.99-.89H42.63l-3.05-14.53s-.01-.04-.01-.06c-.03-.12-.06-.22-.11-.33-.01-.03-.02-.07-.04-.12-.05-.13-.12-.25-.19-.35t0-.01c-.06-.11-.13-.2-.2-.29-.02-.03-.05-.05-.07-.09-.09-.1-.18-.19-.29-.28-.01-.01-.02-.02-.03-.02-.12-.1-.25-.18-.37-.25-.12-.06-.24-.13-.36-.17-.02-.01-.05-.02-.07-.03-.13-.04-.27-.07-.41-.1-.15-.03-.3-.04-.45-.04h-14.82c-1.48,0-2.68,1.2-2.68,2.68s1.2,2.68,2.68,2.68h12.64l18.67,88.8v19.69c-5.61,1.23-9.83,6.24-9.83,12.23,0,6.89,5.61,12.5,12.5,12.5s12.5-5.61,12.5-12.5c0-2.65-.83-5.14-2.26-7.16h66.7c1.48,0,2.68-1.2,2.68-2.68s-1.2-2.68-2.68-2.68H58.8v-17.12h74.27c1.48,0,2.68-1.2,2.68-2.68s-1.2-2.68-2.68-2.68H58.27l-14.52-69.06h118.96l-3.66,33.9c-.16,1.47.91,2.79,2.38,2.94.1.01.19.02.29.02,1.35,0,2.52-1.02,2.65-2.39l3.98-36.87c.07-.76-.17-1.51-.67-2.08Zm-104.4,108.5c0,3.94-3.2,7.15-7.15,7.15s-7.15-3.21-7.15-7.15,3.21-7.16,7.15-7.16,7.15,3.21,7.15,7.16Z" class="cls-1"></path><path d="m146.32,103.4c-1.08,0-2.1-.66-2.5-1.73l-3.19-8.48c-.52-1.38.18-2.93,1.56-3.45,1.38-.52,2.93.18,3.45,1.56l3.19,8.48c.52,1.38-.18,2.93-1.56,3.45-.31.12-.63.17-.94.17Z" class="cls-1"></path><path d="m138.77,114.87c-.32,0-.65-.06-.96-.18l-8.02-3.1c-1.38-.53-2.06-2.08-1.53-3.46.53-1.38,2.09-2.06,3.46-1.53l8.02,3.1c1.38.53,2.06,2.08,1.53,3.46-.41,1.06-1.42,1.71-2.5,1.71Z" class="cls-1"></path><path d="m159.36,107.09c-.42,0-.84-.1-1.23-.3-1.31-.68-1.82-2.3-1.14-3.61l3.97-7.63c.68-1.31,2.3-1.82,3.61-1.14,1.31.68,1.82,2.3,1.14,3.61l-3.97,7.63c-.48.92-1.41,1.44-2.38,1.44Z" class="cls-1"></path><path d="m180.17,142.09l-29.27-33.1c-.83-.94-2.38-.44-2.51.8l-4.6,43.94c-.13,1.21,1.2,2.02,2.22,1.35l9.6-6.27c.8-.52,1.87-.14,2.16.77l4.66,14.54c.24.76,1.05,1.17,1.81.93l5.86-1.88c.76-.24,1.17-1.05.93-1.81l-4.66-14.54c-.29-.9.36-1.84,1.31-1.88l11.46-.47c1.21-.05,1.82-1.48,1.02-2.39Z" class="cls-1"></path></svg>