<svg width="612" height="41" viewBox="0 0 612 41" fill="none" xmlns="http://www.w3.org/2000/svg">
<path d="M1.44867e-05 39.0165V3.75405C-0.019798 3.51715 0.00986684 3.27871 0.0871253 3.05388C0.164384 2.82905 0.287548 2.62275 0.448797 2.44806C0.610046 2.27337 0.805857 2.13413 1.0238 2.03916C1.24173 1.94419 1.47704 1.89557 1.71477 1.8964H11.5416C20.5881 1.8964 25.6224 6.09536 25.6224 13.3721C25.6224 20.8247 20.709 25.0896 11.2449 25.0896H3.02282V39.0165C3.03425 39.198 3.00674 39.3798 2.94213 39.5497C2.87753 39.7197 2.77732 39.8739 2.64823 40.0019C2.51914 40.1299 2.36416 40.2289 2.19368 40.2921C2.0232 40.3554 1.84118 40.3814 1.65981 40.3685H1.24211C0.417712 40.3685 1.44867e-05 39.9068 1.44867e-05 39.0165ZM22.4787 13.515C22.4787 7.77714 18.7524 4.64441 11.5966 4.64441H3.02282V22.4515H11.4757C18.7524 22.4515 22.4787 19.2528 22.4787 13.515Z" fill="white"/>
<path d="M38.2193 39.0165V3.10552C38.2193 2.21517 38.637 1.74251 39.4614 1.74251H39.8791C40.0637 1.71927 40.2511 1.73852 40.427 1.7988C40.603 1.85908 40.7628 1.95879 40.8943 2.09031C41.0259 2.22183 41.1256 2.38167 41.1858 2.55763C41.2461 2.73358 41.2654 2.92099 41.2421 3.10552V19.6705H65.5565V3.10552C65.5565 2.21517 65.9742 1.74251 66.8646 1.74251H67.2713C68.1616 1.74251 68.5793 2.21517 68.5793 3.10552V39.0165C68.5793 39.9068 68.1616 40.3795 67.2713 40.3795H66.8646C65.9742 40.3795 65.5565 39.9068 65.5565 39.0165V22.3855H41.2421V39.0165C41.2636 39.2002 41.2429 39.3863 41.1818 39.5609C41.1208 39.7354 41.0208 39.8938 40.8895 40.024C40.7582 40.1543 40.599 40.2529 40.424 40.3126C40.2489 40.3723 40.0626 40.3914 39.8791 40.3685H39.4614C38.637 40.3685 38.2193 39.9068 38.2193 39.0165Z" fill="white"/>
<path d="M82.0665 21.1434C82.0665 9.66777 89.7609 1.35779 100.94 1.35779C112.119 1.35779 119.692 9.59082 119.692 21.0335C119.692 32.4762 112.064 40.8192 100.819 40.8192C89.5741 40.8192 82.0665 32.6741 82.0665 21.1434ZM116.625 21.0885C116.625 11.2616 110.173 3.92993 100.819 3.92993C91.4647 3.92993 85.1443 11.1517 85.1443 21.0885C85.1443 31.0253 91.5966 38.1701 100.885 38.1701C110.173 38.1701 116.625 30.9703 116.625 21.0885Z" fill="white"/>
<path d="M141.467 4.64441H128.871C127.98 4.64441 127.508 4.22671 127.508 3.39131V3.16048C127.508 2.32509 127.98 1.91838 128.871 1.91838H157.032C157.923 1.91838 158.45 2.32509 158.45 3.16048V3.39131C158.45 4.22671 157.923 4.64441 157.032 4.64441H144.49V39.0165C144.512 39.1955 144.494 39.3772 144.437 39.5482C144.379 39.7193 144.285 39.8753 144.159 40.0049C144.034 40.1346 143.881 40.2345 143.712 40.2974C143.543 40.3603 143.362 40.3846 143.182 40.3685H142.71C141.885 40.3685 141.467 39.8958 141.467 39.0055V4.64441Z" fill="white"/>
<path d="M166.2 21.1434C166.2 9.66777 173.894 1.35779 185.073 1.35779C196.252 1.35779 203.836 9.59082 203.836 21.0335C203.836 32.4762 196.197 40.8192 184.963 40.8192C173.729 40.8192 166.2 32.6741 166.2 21.1434ZM200.758 21.0885C200.758 11.2616 194.306 3.92993 184.963 3.92993C175.62 3.92993 169.277 11.1517 169.277 21.0885C169.277 31.0253 175.73 38.1701 185.018 38.1701C194.306 38.1701 200.758 30.9703 200.758 21.0885Z" fill="white"/>
<path d="M250.102 23.6276V40.1157C249.833 40.3269 249.497 40.4325 249.156 40.4125C248.145 40.4125 247.442 39.8739 247.442 37.5106V32.74C245.364 37.6535 240.22 40.7972 233.471 40.7972C222.479 40.7972 215.543 32.4433 215.543 21.1434C215.543 9.61281 223.182 1.35779 234.361 1.35779C240.099 1.35779 244.188 3.5562 246.375 5.7546C247.407 6.65377 248.123 7.85942 248.42 9.19511C248.437 9.43775 248.401 9.68128 248.314 9.90846C248.227 10.1356 248.092 10.3409 247.916 10.5098C247.741 10.6786 247.531 10.8069 247.301 10.8855C247.071 10.9642 246.826 10.9912 246.584 10.9648C244.694 7.06265 240.077 3.92993 234.218 3.92993C224.93 3.92993 218.599 11.0857 218.599 21.0885C218.599 30.9044 224.281 38.1921 233.866 38.1921C241.319 38.1921 246.826 33.3336 247.42 26.6505V24.0453H235.724C234.537 24.0453 234.009 23.6276 234.009 22.8582V22.6274C234.009 21.8579 234.537 21.3853 235.724 21.3853H247.914C248.208 21.3773 248.501 21.4303 248.774 21.5409C249.046 21.6515 249.293 21.8173 249.499 22.0279C249.704 22.2385 249.864 22.4894 249.967 22.7647C250.071 23.04 250.117 23.3338 250.102 23.6276Z" fill="white"/>
<path d="M264.237 38.9615V3.78703C264.212 3.54281 264.239 3.296 264.318 3.06329C264.396 2.83057 264.523 2.61738 264.691 2.43813C264.859 2.25888 265.063 2.11775 265.29 2.02429C265.517 1.93083 265.762 1.88722 266.007 1.8964H276.362C285.364 1.8964 290.157 5.67766 290.157 12.7785C290.157 19.8794 285.298 23.7705 277.131 23.7705H275.834L289.97 38.9176C290.157 39.1484 289.442 40.3355 288.145 40.3355C287.777 40.2991 287.421 40.1817 287.104 39.9917C286.787 39.8016 286.515 39.5437 286.309 39.2363L272.02 23.7376H267.282V39.0165C267.302 39.2066 267.277 39.3987 267.21 39.5777C267.143 39.7568 267.036 39.918 266.897 40.0488C266.758 40.1797 266.59 40.2766 266.407 40.332C266.224 40.3875 266.031 40.4 265.842 40.3685H265.48C264.655 40.3685 264.237 39.9068 264.237 38.9615ZM276.603 21.2644C283.594 21.2644 286.958 17.9667 286.958 12.9214C286.958 7.53531 283.408 4.64441 276.428 4.64441H267.194V21.2644H276.603Z" fill="white"/>
<path d="M299.148 39.4891L313.647 2.74278C313.943 2.03929 314.471 1.64358 315.9 1.64358C317.329 1.64358 317.846 2.06128 318.098 2.74278L332.696 39.4891C332.762 39.72 332.047 40.2036 331.278 40.3135C330.817 40.401 330.34 40.31 329.944 40.0589C329.548 39.8078 329.263 39.4155 329.145 38.9615L324.353 27.0022H307.315L302.578 38.9615C302.105 40.2586 301.226 40.5004 300.456 40.3135C299.687 40.1267 299.093 39.665 299.148 39.4891ZM323.408 24.3421L315.9 5.05111L308.261 24.3421H323.408Z" fill="white"/>
<path d="M344.171 39.0165V3.75405C344.152 3.51715 344.181 3.27871 344.259 3.05388C344.336 2.82905 344.459 2.62275 344.62 2.44806C344.782 2.27337 344.977 2.13413 345.195 2.03916C345.413 1.94419 345.649 1.89557 345.886 1.8964H355.713C364.771 1.8964 369.794 6.09536 369.794 13.3721C369.794 20.8247 364.88 25.0896 355.416 25.0896H347.194V39.0165C347.206 39.198 347.178 39.3798 347.114 39.5497C347.049 39.7197 346.949 39.8739 346.82 40.0019C346.691 40.1299 346.536 40.2289 346.365 40.2921C346.195 40.3554 346.013 40.3814 345.831 40.3685H345.414C344.589 40.3685 344.171 39.9068 344.171 39.0165ZM366.661 13.515C366.661 7.77714 362.935 4.64441 355.768 4.64441H347.194V22.4515H355.658C362.935 22.4515 366.661 19.2528 366.661 13.515Z" fill="white"/>
<path d="M382.402 39.0165V3.10552C382.402 2.21517 382.808 1.74251 383.644 1.74251H384.062C384.245 1.72109 384.431 1.74171 384.606 1.80281C384.781 1.8639 384.939 1.96387 385.069 2.09516C385.199 2.22646 385.298 2.38564 385.358 2.56067C385.417 2.73571 385.437 2.92202 385.414 3.10552V19.6705H409.739V3.10552C409.739 2.21517 410.146 1.74251 411.036 1.74251H411.454C412.333 1.74251 412.751 2.21517 412.751 3.10552V39.0165C412.751 39.9068 412.333 40.3795 411.454 40.3795H411.036C410.146 40.3795 409.739 39.9068 409.739 39.0165V22.3855H385.414V39.0165C385.435 39.1991 385.414 39.3842 385.354 39.5578C385.293 39.7315 385.194 39.8892 385.064 40.0192C384.934 40.1492 384.777 40.2482 384.603 40.3086C384.429 40.3691 384.244 40.3896 384.062 40.3685H383.622C382.808 40.3685 382.402 39.9068 382.402 39.0165Z" fill="white"/>
<path d="M437.725 39.0165V23.8145L423.875 2.9956C423.754 2.52294 424.578 1.80846 425.589 1.80846C425.914 1.81598 426.231 1.90689 426.51 2.07246C426.789 2.23802 427.021 2.47266 427.183 2.75378L439.275 21.0995L451.366 2.81973C451.526 2.50584 451.773 2.24407 452.076 2.06501C452.38 1.88594 452.728 1.79696 453.081 1.80846C454.081 1.80846 454.729 2.64386 454.674 2.9956L440.78 23.8145V39.0165C440.806 39.199 440.788 39.3848 440.73 39.5596C440.672 39.7343 440.574 39.8933 440.444 40.0241C440.315 40.1549 440.156 40.254 439.982 40.3137C439.808 40.3735 439.622 40.3922 439.439 40.3685H439.022C438.131 40.3685 437.725 39.9068 437.725 39.0165Z" fill="white"/>
<path d="M464.468 38.0052C464.436 37.7236 464.467 37.4384 464.559 37.1702C464.651 36.9021 464.801 36.6576 464.999 36.4546C465.196 36.2516 465.437 36.095 465.702 35.9963C465.968 35.8976 466.252 35.8591 466.535 35.8838H466.953C467.24 35.8481 467.531 35.8784 467.805 35.9724C468.078 36.0665 468.327 36.2217 468.532 36.4262C468.736 36.6308 468.891 36.8794 468.985 37.153C469.079 37.4266 469.11 37.7181 469.074 38.0052V38.4229C469.098 38.7057 469.06 38.9903 468.961 39.2564C468.862 39.5226 468.706 39.7635 468.503 39.9621C468.301 40.1607 468.056 40.3119 467.788 40.405C467.52 40.4981 467.235 40.5306 466.953 40.5004H466.535C466.256 40.526 465.975 40.4897 465.712 40.3942C465.449 40.2987 465.21 40.1463 465.013 39.9478C464.815 39.7494 464.664 39.5098 464.57 39.2462C464.476 38.9826 464.441 38.7015 464.468 38.4229V38.0052Z" fill="white"/>
<path d="M500.137 1.32481C506.117 1.32481 510.14 3.57818 512.383 5.82055C513.434 6.77141 514.151 8.03566 514.427 9.42594C514.413 9.90841 514.215 10.3673 513.874 10.7086C513.533 11.0499 513.074 11.2478 512.591 11.2616C511.404 8.97692 509.594 7.0755 507.37 5.77784C505.147 4.48019 502.601 3.83945 500.028 3.92992C490.673 3.92992 484.287 11.0857 484.287 21.0885C484.287 31.0912 490.673 38.1701 500.137 38.1701C507.183 38.1701 511.558 34.202 512.976 29.9371C513.478 29.9099 513.971 30.0815 514.347 30.4148C514.724 30.7481 514.954 31.2161 514.988 31.7178C514.665 33.4852 513.75 35.09 512.394 36.2685C510.195 38.5768 505.798 40.7752 500.028 40.7752C488.717 40.7752 481.209 32.6081 481.209 21.1215C481.209 9.63479 488.904 1.32481 500.137 1.32481Z" fill="white"/>
<path d="M577.082 3.63314C577.079 3.37087 577.131 3.11097 577.235 2.87016C577.339 2.62934 577.492 2.41294 577.685 2.23487C577.878 2.0568 578.105 1.921 578.353 1.8362C578.602 1.75141 578.865 1.71949 579.126 1.74251H579.841C581.434 1.74251 581.797 2.39104 582.501 3.94092L594.152 27.0242L605.815 3.94092C606.463 2.40203 606.914 1.74251 608.42 1.74251H609.013C609.284 1.70866 609.56 1.73193 609.821 1.81082C610.083 1.88971 610.325 2.02247 610.532 2.20056C610.739 2.37865 610.906 2.59812 611.023 2.84485C611.141 3.09158 611.205 3.36011 611.212 3.63314V39.0165C611.212 39.9068 610.794 40.3795 609.904 40.3795H609.552C608.728 40.3795 608.31 39.9068 608.31 39.0165V5.19401L596.647 28.0135C596.492 28.5623 596.155 29.0423 595.692 29.3756C595.229 29.7088 594.667 29.8757 594.097 29.8491C593.517 29.895 592.939 29.7366 592.463 29.4014C591.988 29.0662 591.644 28.5752 591.492 28.0135L579.896 5.19401V39.0165C579.896 39.9068 579.599 40.3795 578.653 40.3795H578.181C577.356 40.3795 577.082 39.9068 577.082 39.0165V3.63314Z" fill="white"/>
<path d="M524.32 20.7807C524.322 16.8152 525.503 12.9398 527.713 9.64675C529.922 6.35371 533.06 3.7916 536.729 2.2858C540.397 0.779996 544.431 0.398438 548.317 1.18958C552.202 1.98073 555.765 3.90888 558.553 6.72916C561.341 9.54945 563.228 13.1346 563.974 17.0294C564.72 20.9241 564.291 24.9527 562.743 28.6036C561.195 32.2544 558.597 35.3627 555.278 37.5338C551.96 39.7049 548.071 40.8408 544.106 40.7972C538.832 40.7508 533.792 38.6196 530.085 34.8693C526.378 31.1189 524.305 26.054 524.32 20.7807ZM544.336 13.6029C542.911 13.6007 541.516 14.022 540.33 14.8133C539.144 15.6045 538.219 16.7302 537.674 18.0475C537.128 19.3648 536.986 20.8145 537.265 22.2127C537.544 23.611 538.232 24.8948 539.242 25.9015C540.252 26.9082 541.538 27.5924 542.937 27.8673C544.336 28.1423 545.785 27.9956 547.101 27.446C548.417 26.8963 549.539 25.9684 550.327 24.7798C551.115 23.5912 551.532 22.1956 551.525 20.7697C551.525 19.823 551.338 18.8856 550.973 18.0118C550.609 17.1379 550.075 16.3449 549.403 15.6786C548.73 15.0122 547.932 14.4857 547.055 14.1294C546.178 13.7731 545.239 13.5942 544.292 13.6029H544.336ZM551.481 15.0868V14.856C551.481 11.4045 551.481 7.95667 551.481 4.5125C551.492 4.43723 551.474 4.36078 551.431 4.29787C551.388 4.23496 551.324 4.19003 551.25 4.17175C548.94 3.20644 546.455 2.73108 543.952 2.77576C542.306 2.8086 540.672 3.05995 539.093 3.52322C538.686 3.64413 538.28 3.79802 537.84 3.94092L537.994 4.07282L541.05 6.50206L546.491 10.8989C547.788 11.9431 549.085 12.9764 550.36 14.0316C550.751 14.3641 551.126 14.7163 551.481 15.0868ZM535.312 22.7813L535.235 22.9242L530.651 32.4323C530.626 32.4734 530.618 32.5226 530.628 32.5697C530.638 32.6168 530.666 32.6582 530.706 32.6851C533.561 35.9293 537.484 38.043 541.764 38.6428L542.721 38.7527L542.6 38.4779L536.73 26.2987C536.115 25.1887 535.639 24.0074 535.312 22.7813ZM553.207 22.7813L553.35 22.6823L556.153 20.4839L561.506 16.23C561.563 16.1939 561.606 16.1394 561.628 16.0754C561.65 16.0115 561.65 15.9419 561.627 15.8783C560.386 11.4736 557.512 7.70781 553.592 5.3479L553.427 5.25996V20.5829C553.427 21.0225 553.427 21.4622 553.35 21.9019C553.273 22.3416 553.284 22.5174 553.229 22.8472L553.207 22.7813ZM537.104 15.0868L533.949 15.8123L526.727 17.4501C526.669 17.4554 526.614 17.4817 526.574 17.5242C526.533 17.5667 526.51 17.6224 526.507 17.681C526.176 19.5844 526.146 21.5281 526.419 23.4408C526.715 25.4787 527.362 27.4498 528.332 29.2666C528.618 29.7942 528.937 30.3108 529.255 30.8604C529.31 30.7505 529.343 30.6955 529.365 30.6406L534.96 19.044C535.455 18.0327 535.96 17.0214 536.477 16.0212C536.653 15.6694 536.884 15.3836 537.104 15.0868ZM557.395 33.2457H557.186L552.207 32.1465L545.919 30.7175C544.71 30.4427 543.512 30.1899 542.314 29.8931C541.632 29.7172 540.973 29.4644 540.302 29.2556C540.328 29.3053 540.35 29.3567 540.368 29.4095L543.413 35.7189L544.897 38.7966C544.897 38.8626 545.029 38.9505 545.084 38.9505C546.087 38.9165 547.084 38.7877 548.063 38.5658C550.988 37.9474 553.71 36.6015 555.977 34.6527C556.461 34.114 556.9 33.6744 557.395 33.2127V33.2457ZM548.294 29.1237H548.458L550.8 29.6513L558.549 31.432C558.626 31.4607 558.71 31.4609 558.787 31.4327C558.863 31.4044 558.927 31.3496 558.967 31.2781C560.604 28.9709 561.68 26.3138 562.111 23.5177C562.316 22.1279 562.367 20.7198 562.264 19.3188C562.264 18.989 562.187 18.6483 562.143 18.2855L561.891 18.4724L559.692 20.2421C557.494 21.9569 555.416 23.6606 553.262 25.3644C552.163 26.2547 551.063 27.1671 549.898 28.0354C549.371 28.4312 548.821 28.7499 548.294 29.0907V29.1237ZM527.068 15.2627H527.134L529.035 14.834L534.773 13.526L540.456 12.2289C541.478 11.9567 542.517 11.7547 543.567 11.6243H544.303L544.193 11.5364L536.059 5.04012C535.992 4.97753 535.904 4.94273 535.812 4.94273C535.72 4.94273 535.632 4.97753 535.565 5.04012C532.25 6.8636 529.596 9.68722 527.98 13.1083C527.617 13.7788 527.376 14.5372 527.068 15.2627Z" fill="#57A1D2"/>
</svg>
