<svg width="490" height="32" viewBox="0 0 490 32" fill="none" xmlns="http://www.w3.org/2000/svg">
<g clip-path="url(#clip0_139_13540)">
<path d="M7.26243e-05 30.5754V2.36548C-0.0157773 2.17596 0.00795451 1.98521 0.0697613 1.80534C0.131568 1.62548 0.230099 1.46044 0.359099 1.32069C0.488098 1.18094 0.644746 1.06954 0.819098 0.993562C0.993449 0.917587 1.18169 0.878695 1.37188 0.879357H9.23338C16.4705 0.879357 20.498 4.23852 20.498 10.0599C20.498 16.022 16.5673 19.4339 8.99595 19.4339H2.41832V30.5754C2.42746 30.7206 2.40545 30.866 2.35377 31.002C2.30208 31.138 2.22191 31.2613 2.11864 31.3638C2.01537 31.4662 1.89139 31.5454 1.75501 31.5959C1.61862 31.6465 1.473 31.6674 1.32791 31.657H0.993752C0.33423 31.657 7.26243e-05 31.2877 7.26243e-05 30.5754ZM17.983 10.1742C17.983 5.58395 15.002 3.07776 9.27735 3.07776H2.41832V17.3234H9.18062C15.002 17.3234 17.983 14.7645 17.983 10.1742Z" fill="#231F20"/>
<path d="M30.5755 30.5754V1.84666C30.5755 1.13437 30.9096 0.756247 31.5692 0.756247H31.9033C32.0509 0.737654 32.2009 0.753058 32.3416 0.801282C32.4824 0.849506 32.6103 0.929273 32.7155 1.03449C32.8207 1.1397 32.9005 1.26758 32.9487 1.40834C32.9969 1.5491 33.0123 1.69903 32.9937 1.84666V15.0986H52.4452V1.84666C52.4452 1.13437 52.7794 0.756247 53.4917 0.756247H53.817C54.5293 0.756247 54.8635 1.13437 54.8635 1.84666V30.5754C54.8635 31.2877 54.5293 31.6658 53.817 31.6658H53.4917C52.7794 31.6658 52.4452 31.2877 52.4452 30.5754V17.2707H32.9937V30.5754C33.0108 30.7224 32.9944 30.8713 32.9455 31.0109C32.8966 31.1506 32.8166 31.2773 32.7116 31.3815C32.6066 31.4856 32.4792 31.5646 32.3392 31.6123C32.1992 31.6601 32.0501 31.6754 31.9033 31.657H31.5692C30.9096 31.657 30.5755 31.2877 30.5755 30.5754Z" fill="#231F20"/>
<path d="M65.6533 16.277C65.6533 7.09645 71.8088 0.448471 80.7519 0.448471C89.695 0.448471 95.7538 7.0349 95.7538 16.1891C95.7538 25.3432 89.6511 32.0176 80.6552 32.0176C71.6593 32.0176 65.6533 25.5015 65.6533 16.277ZM93.3004 16.233C93.3004 8.37153 88.1386 2.50618 80.6552 2.50618C73.1718 2.50618 68.1155 8.28359 68.1155 16.233C68.1155 24.1825 73.2773 29.8983 80.7079 29.8983C88.1386 29.8983 93.3004 24.1385 93.3004 16.233Z" fill="#231F20"/>
<path d="M113.174 3.07776H103.096C102.384 3.07776 102.006 2.7436 102.006 2.07529V1.89062C102.006 1.22231 102.384 0.896942 103.096 0.896942H125.626C126.338 0.896942 126.76 1.22231 126.76 1.89062V2.07529C126.76 2.7436 126.338 3.07776 125.626 3.07776H115.592V30.5754C115.61 30.7186 115.595 30.864 115.549 31.0008C115.504 31.1376 115.428 31.2625 115.327 31.3662C115.227 31.4699 115.105 31.5498 114.97 31.6002C114.834 31.6505 114.689 31.6699 114.546 31.657H114.168C113.508 31.657 113.174 31.2789 113.174 30.5666V3.07776Z" fill="#231F20"/>
<path d="M132.96 16.277C132.96 7.09645 139.115 0.448471 148.058 0.448471C157.001 0.448471 163.069 7.0349 163.069 16.1891C163.069 25.3432 156.958 32.0176 147.97 32.0176C138.983 32.0176 132.96 25.5015 132.96 16.277ZM160.607 16.233C160.607 8.37153 155.445 2.50618 147.97 2.50618C140.496 2.50618 135.422 8.28359 135.422 16.233C135.422 24.1825 140.584 29.8983 148.014 29.8983C155.445 29.8983 160.607 24.1385 160.607 16.233Z" fill="#231F20"/>
<path d="M200.081 18.2644V31.4548C199.867 31.6237 199.598 31.7082 199.325 31.6922C198.516 31.6922 197.953 31.2613 197.953 29.3707V25.5543C196.291 29.485 192.176 32 186.777 32C177.983 32 172.434 25.3168 172.434 16.277C172.434 7.05248 178.546 0.448471 187.489 0.448471C192.079 0.448471 195.35 2.2072 197.1 3.96592C197.925 4.68525 198.499 5.64977 198.736 6.71833C198.75 6.91244 198.721 7.10726 198.652 7.289C198.582 7.47075 198.473 7.63497 198.333 7.77005C198.193 7.90512 198.025 8.00775 197.841 8.07066C197.657 8.13357 197.461 8.15523 197.267 8.1341C195.755 5.01236 192.062 2.50618 187.375 2.50618C179.944 2.50618 174.879 8.23083 174.879 16.233C174.879 24.0857 179.425 29.9159 187.093 29.9159C193.055 29.9159 197.461 26.0291 197.936 20.6826V18.5985H188.579C187.63 18.5985 187.208 18.2644 187.208 17.6488V17.4641C187.208 16.8486 187.63 16.4705 188.579 16.4705H198.331C198.567 16.4641 198.801 16.5065 199.019 16.5949C199.237 16.6834 199.435 16.8161 199.599 16.9846C199.763 17.153 199.891 17.3537 199.974 17.574C200.057 17.7942 200.094 18.0293 200.081 18.2644Z" fill="#231F20"/>
<path d="M211.39 30.5315V2.39187C211.37 2.1965 211.392 1.99905 211.454 1.81287C211.517 1.6267 211.619 1.45615 211.753 1.31275C211.887 1.16935 212.051 1.05645 212.232 0.981677C212.414 0.906908 212.61 0.872017 212.806 0.879362H221.089C228.291 0.879362 232.125 3.90437 232.125 9.58505C232.125 15.2657 228.239 18.3787 221.705 18.3787H220.667L231.976 30.4963C232.125 30.681 231.554 31.6307 230.516 31.6307C230.222 31.6016 229.937 31.5076 229.683 31.3556C229.429 31.2035 229.212 30.9972 229.048 30.7513L217.616 18.3523H213.826V30.5754C213.841 30.7275 213.822 30.8812 213.768 31.0244C213.715 31.1677 213.629 31.2967 213.518 31.4013C213.406 31.506 213.272 31.5835 213.126 31.6279C212.979 31.6722 212.825 31.6822 212.674 31.657H212.384C211.724 31.657 211.39 31.2877 211.39 30.5315ZM221.283 16.3737C226.876 16.3737 229.566 13.7356 229.566 9.69937C229.566 5.39049 226.726 3.07777 221.142 3.07777H213.756V16.3737H221.283Z" fill="#231F20"/>
<path d="M239.319 30.9536L250.917 1.55647C251.155 0.993679 251.577 0.677109 252.72 0.677109C253.863 0.677109 254.277 1.01127 254.479 1.55647L266.157 30.9536C266.209 31.1382 265.638 31.5251 265.022 31.6131C264.654 31.6831 264.272 31.6103 263.956 31.4094C263.639 31.2085 263.41 30.8947 263.316 30.5315L259.482 20.964H245.852L242.062 30.5315C241.684 31.5691 240.981 31.7626 240.365 31.6131C239.749 31.4636 239.275 31.0943 239.319 30.9536ZM258.726 18.8359L252.72 3.40313L246.608 18.8359H258.726Z" fill="#231F20"/>
<path d="M275.337 30.5754V2.36548C275.321 2.17596 275.345 1.98521 275.407 1.80534C275.469 1.62548 275.567 1.46044 275.696 1.32069C275.825 1.18094 275.982 1.06954 276.156 0.993562C276.331 0.917587 276.519 0.878695 276.709 0.879357H284.571C291.817 0.879357 295.835 4.23852 295.835 10.0599C295.835 16.022 291.904 19.4339 284.333 19.4339H277.756V30.5754C277.765 30.7206 277.743 30.866 277.691 31.002C277.639 31.138 277.559 31.2613 277.456 31.3638C277.353 31.4662 277.229 31.5454 277.092 31.5959C276.956 31.6465 276.81 31.6674 276.665 31.657H276.331C275.671 31.657 275.337 31.2877 275.337 30.5754ZM293.329 10.1742C293.329 5.58395 290.348 3.07776 284.615 3.07776H277.756V17.3234H284.527C290.348 17.3234 293.329 14.7645 293.329 10.1742Z" fill="#231F20"/>
<path d="M305.922 30.5754V1.84666C305.922 1.13437 306.247 0.756247 306.915 0.756247H307.249C307.396 0.739114 307.545 0.755609 307.685 0.804484C307.824 0.853359 307.951 0.933336 308.055 1.03837C308.16 1.1434 308.239 1.27075 308.286 1.41078C308.334 1.5508 308.349 1.69985 308.331 1.84666V15.0986H327.791V1.84666C327.791 1.13437 328.117 0.756247 328.829 0.756247H329.163C329.867 0.756247 330.201 1.13437 330.201 1.84666V30.5754C330.201 31.2877 329.867 31.6658 329.163 31.6658H328.829C328.117 31.6658 327.791 31.2877 327.791 30.5754V17.2707H308.331V30.5754C308.348 30.7216 308.331 30.8696 308.283 31.0085C308.235 31.1474 308.156 31.2736 308.052 31.3776C307.947 31.4816 307.821 31.5608 307.682 31.6092C307.544 31.6575 307.395 31.6739 307.249 31.657H306.898C306.247 31.657 305.922 31.2877 305.922 30.5754Z" fill="#231F20"/>
<path d="M350.18 30.5754V18.4138L339.1 1.75872C339.003 1.38059 339.663 0.809004 340.472 0.809004C340.731 0.815016 340.985 0.887749 341.208 1.0202C341.432 1.15265 341.617 1.34036 341.747 1.56526L351.42 16.2418L361.093 1.61802C361.221 1.36691 361.418 1.15749 361.661 1.01424C361.904 0.870985 362.183 0.799802 362.465 0.809004C363.265 0.809004 363.784 1.47732 363.74 1.75872L352.624 18.4138V30.5754C352.645 30.7214 352.631 30.8701 352.584 31.0099C352.538 31.1497 352.459 31.2769 352.355 31.3815C352.252 31.4861 352.125 31.5654 351.986 31.6132C351.846 31.661 351.698 31.676 351.552 31.657H351.217C350.505 31.657 350.18 31.2877 350.18 30.5754Z" fill="#231F20"/>
<path d="M371.575 29.7664C371.549 29.5411 371.574 29.313 371.647 29.0984C371.721 28.8839 371.841 28.6883 371.999 28.5259C372.157 28.3635 372.35 28.2383 372.562 28.1593C372.775 28.0803 373.002 28.0495 373.228 28.0692H373.562C373.792 28.0407 374.025 28.065 374.244 28.1402C374.463 28.2154 374.662 28.3396 374.825 28.5032C374.989 28.6669 375.113 28.8657 375.188 29.0846C375.264 29.3035 375.288 29.5367 375.259 29.7664V30.1006C375.279 30.3268 375.248 30.5545 375.169 30.7674C375.09 30.9803 374.965 31.1731 374.803 31.3319C374.641 31.4908 374.445 31.6118 374.231 31.6862C374.016 31.7607 373.788 31.7868 373.562 31.7626H373.228C373.005 31.783 372.78 31.754 372.57 31.6776C372.359 31.6012 372.168 31.4793 372.01 31.3205C371.852 31.1617 371.731 30.9701 371.656 30.7592C371.581 30.5483 371.553 30.3234 371.575 30.1006V29.7664Z" fill="#231F20"/>
<path d="M400.11 0.422089C404.894 0.422089 408.112 2.22478 409.906 4.01868C410.747 4.77937 411.321 5.79077 411.542 6.90299C411.531 7.28897 411.372 7.6561 411.099 7.92915C410.826 8.20219 410.459 8.36046 410.073 8.37153C409.124 6.54377 407.675 5.02264 405.896 3.98451C404.117 2.94639 402.081 2.4338 400.022 2.50618C392.539 2.50618 387.43 8.23083 387.43 16.233C387.43 24.2352 392.539 29.8983 400.11 29.8983C405.747 29.8983 409.247 26.7238 410.381 23.3119C410.783 23.2902 411.177 23.4275 411.478 23.6941C411.779 23.9607 411.963 24.3352 411.99 24.7365C411.732 26.1504 411 27.4342 409.915 28.377C408.156 30.2237 404.639 31.9824 400.022 31.9824C390.973 31.9824 384.967 25.4487 384.967 16.2594C384.967 7.07007 391.123 0.422089 400.11 0.422089Z" fill="#231F20"/>
<path d="M461.665 2.26874C461.663 2.05893 461.705 1.85101 461.788 1.65836C461.872 1.4657 461.994 1.29258 462.148 1.15013C462.302 1.00767 462.484 0.899028 462.683 0.831191C462.881 0.763354 463.092 0.737823 463.301 0.756239H463.873C465.148 0.756239 465.438 1.27506 466.001 2.51496L475.322 20.9816L484.652 2.51496C485.171 1.28386 485.531 0.756239 486.736 0.756239H487.211C487.428 0.729159 487.648 0.747773 487.857 0.810884C488.066 0.873995 488.26 0.980204 488.425 1.12268C488.591 1.26515 488.725 1.44073 488.819 1.63811C488.913 1.8355 488.964 2.05031 488.97 2.26874V30.5754C488.97 31.2877 488.635 31.6658 487.923 31.6658H487.642C486.982 31.6658 486.648 31.2877 486.648 30.5754V3.51744L477.318 21.773C477.194 22.212 476.924 22.5961 476.554 22.8627C476.183 23.1293 475.734 23.2628 475.278 23.2415C474.814 23.2782 474.351 23.1515 473.971 22.8833C473.59 22.6152 473.315 22.2224 473.194 21.773L463.917 3.51744V30.5754C463.917 31.2877 463.679 31.6658 462.923 31.6658H462.545C461.885 31.6658 461.665 31.2877 461.665 30.5754V2.26874Z" fill="#231F20"/>
<path d="M419.456 15.9868C419.458 12.8144 420.403 9.71406 422.17 7.07963C423.938 4.44521 426.448 2.39552 429.383 1.19087C432.318 -0.0137683 435.545 -0.319015 438.653 0.3139C441.762 0.946814 444.612 2.48934 446.843 4.74556C449.073 7.00179 450.582 9.86993 451.179 12.9857C451.776 16.1015 451.433 19.3244 450.195 22.2451C448.956 25.1657 446.877 27.6524 444.223 29.3893C441.568 31.1261 438.457 32.0348 435.284 32C431.066 31.9628 427.034 30.2579 424.068 27.2577C421.102 24.2574 419.444 20.2054 419.456 15.9868ZM435.469 10.2446C434.328 10.2428 433.213 10.5798 432.264 11.2128C431.315 11.8459 430.576 12.7464 430.139 13.8002C429.703 14.8541 429.589 16.0138 429.812 17.1324C430.036 18.251 430.586 19.2781 431.394 20.0834C432.202 20.8888 433.23 21.4361 434.35 21.6561C435.469 21.8761 436.628 21.7587 437.681 21.319C438.733 20.8793 439.632 20.1369 440.262 19.1861C440.892 18.2352 441.225 17.1187 441.22 15.978C441.22 15.2206 441.07 14.4707 440.779 13.7717C440.487 13.0726 440.06 12.4382 439.522 11.9051C438.984 11.372 438.346 10.9508 437.644 10.6658C436.943 10.3807 436.191 10.2376 435.434 10.2446H435.469ZM441.185 11.4317V11.247C441.185 8.48584 441.185 5.72757 441.185 2.97224C441.193 2.91202 441.179 2.85086 441.145 2.80053C441.111 2.7502 441.059 2.71426 441 2.69963C439.152 1.92738 437.164 1.5471 435.161 1.58284C433.845 1.60911 432.538 1.81019 431.275 2.18081C430.949 2.27754 430.624 2.40065 430.272 2.51497L430.395 2.62049L432.84 4.56388L437.193 8.08133C438.23 8.91673 439.268 9.74333 440.288 10.5875C440.601 10.8535 440.901 11.1353 441.185 11.4317ZM428.25 17.5872L428.188 17.7016L424.521 25.308C424.501 25.3409 424.494 25.3803 424.502 25.418C424.511 25.4557 424.533 25.4888 424.565 25.5103C426.849 28.1057 429.988 29.7966 433.411 30.2764L434.176 30.3644L434.08 30.1445L429.384 20.4012C428.892 19.5132 428.511 18.5681 428.25 17.5872ZM442.566 17.5872L442.68 17.5081L444.922 15.7494L449.205 12.3462C449.251 12.3174 449.285 12.2737 449.303 12.2226C449.32 12.1714 449.32 12.1157 449.302 12.0648C448.309 8.54115 446.01 5.52848 442.873 3.64055L442.741 3.5702V15.8285C442.741 16.1803 442.741 16.532 442.68 16.8838C442.618 17.2355 442.627 17.3762 442.583 17.64L442.566 17.5872ZM429.683 11.4317L427.159 12.0121L421.382 13.3223C421.335 13.3266 421.291 13.3476 421.259 13.3816C421.227 13.4156 421.208 13.4601 421.206 13.507C420.941 15.0297 420.917 16.5847 421.136 18.1149C421.372 19.7452 421.89 21.3221 422.666 22.7755C422.894 23.1976 423.149 23.6109 423.404 24.0506C423.448 23.9626 423.475 23.9186 423.492 23.8747L427.968 14.5974C428.364 13.7884 428.768 12.9794 429.182 12.1792C429.322 11.8978 429.507 11.6691 429.683 11.4317ZM445.916 25.9588H445.749L441.765 25.0794L436.735 23.9362C435.768 23.7164 434.81 23.5141 433.851 23.2767C433.306 23.136 432.778 22.9338 432.242 22.7667C432.262 22.8065 432.28 22.8476 432.295 22.8898L434.73 27.9373L435.918 30.3995C435.918 30.4523 436.023 30.5227 436.067 30.5227C436.869 30.4955 437.667 30.3924 438.45 30.2149C440.79 29.7201 442.968 28.6434 444.782 27.0844C445.169 26.6535 445.52 26.3017 445.916 25.9324V25.9588ZM438.635 22.6612H438.767L440.64 23.0833L446.839 24.5078C446.901 24.5308 446.968 24.531 447.029 24.5084C447.091 24.4858 447.142 24.4419 447.173 24.3847C448.483 22.539 449.344 20.4132 449.688 18.1764C449.852 17.0646 449.894 15.9381 449.812 14.8172C449.812 14.5534 449.75 14.2808 449.715 13.9906L449.513 14.1401L447.754 15.5559C445.995 16.9277 444.333 18.2907 442.61 19.6537C441.73 20.366 440.851 21.0959 439.919 21.7906C439.497 22.1072 439.057 22.3622 438.635 22.6348V22.6612ZM421.654 11.5724H421.707L423.228 11.2294L427.819 10.183L432.365 9.14536C433.183 8.9276 434.014 8.766 434.854 8.66171H435.443L435.355 8.59136L428.848 3.39433C428.794 3.34426 428.723 3.31642 428.65 3.31642C428.576 3.31642 428.506 3.34426 428.452 3.39433C425.8 4.85311 423.677 7.11201 422.384 9.84885C422.094 10.3853 421.901 10.992 421.654 11.5724Z" fill="#57A1D2"/>
</g>
<defs>
<clipPath id="clip0_139_13540">
<rect width="489.6" height="32" fill="white"/>
</clipPath>
</defs>
</svg>
