<svg xml:space="preserve" style="enable-background:new 0 0 200 200;" viewBox="0 0 200 200" y="0px" x="0px" xmlns:xlink="http://www.w3.org/1999/xlink" xmlns="http://www.w3.org/2000/svg" id="Layer_1" version="1.1">
<style type="text/css">
	.st0{fill:#E9F6FF;}
</style>
<g>
	<g>
		<path d="M100,183.41c-0.61,0-1.25-0.13-1.96-0.4l-0.27-0.08l-0.19-0.11c-0.09-0.04-0.14-0.07-0.2-0.09l-0.44-0.16
			l-0.42-0.45c-0.04-0.04-0.11-0.11-0.18-0.17c-0.03-0.03-0.07-0.05-0.12-0.08l-0.24-0.14L15.2,95.55c-0.4-0.42-0.72-0.92-1-1.53
			l-0.06-0.13c0,0-0.1-0.34-0.13-0.42c-0.14-0.43-0.23-0.81-0.27-1.17c-0.02-0.22-0.02-0.42-0.02-0.63c0.01-0.4,0.05-0.79,0.14-1.18
			c0.04-0.21,0.09-0.41,0.17-0.62l0.1-0.4l0.15-0.26c0.06-0.1,0.12-0.19,0.18-0.27l0.16-0.24l0.09-0.21l0.17-0.26l32.26-43.01
			l0.13-0.12c0.07-0.06,0.12-0.11,0.16-0.16c0.12-0.14,0.25-0.26,0.39-0.39c0.5-0.45,0.99-0.79,1.51-1.02l0.11-0.06l0.1-0.04
			c0.54-0.2,1.13-0.31,1.81-0.34l0.19-0.04l0.22,0h96.65l0.19,0.04c0.71,0.04,1.28,0.14,1.79,0.33l0.17,0.06l0.15,0.09
			c0.48,0.21,0.96,0.54,1.45,0.98c0.14,0.13,0.27,0.26,0.4,0.41c0.01,0.01,0.06,0.06,0.1,0.1l-1.19,1.3l1.44-1.02l32.31,43.08
			l0.09,0.21l0.18,0.29c0.07,0.1,0.12,0.17,0.17,0.24l0.18,0.29l0.08,0.34l0.04,0.15c0.05,0.14,0.1,0.35,0.15,0.57
			c0.09,0.39,0.13,0.77,0.14,1.15c0,0.23,0,0.43-0.02,0.63c-0.04,0.36-0.12,0.73-0.27,1.17l-0.14,0.46l-0.06,0.13
			c-0.26,0.58-0.6,1.09-0.99,1.51l-80.78,86.17l-0.23,0.14c-0.05,0.03-0.09,0.06-0.13,0.09c-0.09,0.08-0.15,0.14-0.22,0.21
			c-0.04,0.04-0.1,0.1-0.17,0.17l-0.28,0.26l-0.36,0.14c-0.08,0.03-0.13,0.05-0.18,0.08l-0.16,0.09l-0.25,0.1
			C101.24,183.28,100.6,183.41,100,183.41z M100,161.81l24.18-64.48H75.82L100,161.81z M115.12,153.46l52.62-56.13h-31.57
			L115.12,153.46z M84.88,153.46L63.83,97.33H32.26L84.88,153.46z M169.47,86.1l-19.39-25.86l-9.7,25.86H169.47z M121.05,86.1
			L100,58.03L78.95,86.1H121.05z M59.62,86.1l-9.7-25.86L30.53,86.1H59.62z M130.62,80.15l9.7-25.86h-29.09L130.62,80.15z
			 M69.38,80.15l19.39-25.86H59.68L69.38,80.15z" class="st0"></path>
		<path d="M148.23,45.06c0.09,0.02,0.21,0.04,0.34,0.04c0.46,0.02,0.84,0.09,1.15,0.2c0.05,0.03,0.1,0.05,0.15,0.08
			c0.33,0.15,0.64,0.36,0.97,0.65c0.09,0.08,0.16,0.16,0.25,0.26c0.08,0.09,0.16,0.17,0.25,0.25c0.01,0.01,0.01,0.01,0.01,0.01
			s0,0-0.01-0.01l32.18,42.9c0.06,0.13,0.12,0.25,0.19,0.36c0.06,0.09,0.12,0.17,0.18,0.26c0.04,0.05,0.08,0.11,0.11,0.16
			c0.03,0.12,0.06,0.23,0.1,0.34c0.03,0.09,0.06,0.23,0.09,0.37c0.06,0.26,0.09,0.51,0.09,0.76c0,0.14,0,0.27-0.01,0.41
			c-0.02,0.21-0.08,0.45-0.18,0.75c-0.03,0.08-0.06,0.17-0.08,0.26l-0.03,0.11c-0.17,0.39-0.38,0.71-0.63,0.97l-80.6,85.97
			c-0.16,0.1-0.29,0.19-0.41,0.29c-0.11,0.09-0.21,0.19-0.3,0.29c-0.04,0.04-0.07,0.07-0.11,0.11c-0.14,0.05-0.24,0.1-0.34,0.14
			c-0.07,0.03-0.12,0.07-0.18,0.1c-0.05,0.02-0.1,0.03-0.15,0.05c-0.5,0.19-0.9,0.27-1.26,0.27c-0.36,0-0.76-0.09-1.25-0.27
			c-0.06-0.02-0.11-0.04-0.16-0.05c-0.04-0.03-0.09-0.06-0.15-0.08c-0.15-0.07-0.26-0.12-0.38-0.16c0,0-0.07-0.07-0.1-0.11
			c-0.1-0.1-0.19-0.19-0.3-0.29c-0.14-0.12-0.28-0.22-0.41-0.3l-80.6-85.97c-0.24-0.26-0.45-0.58-0.63-0.99c0,0-0.08-0.28-0.11-0.37
			c-0.09-0.28-0.15-0.53-0.18-0.75c-0.01-0.13-0.01-0.26-0.01-0.4c0-0.24,0.03-0.49,0.09-0.75c0.03-0.14,0.06-0.27,0.11-0.4
			c0.03-0.1,0.06-0.2,0.08-0.3c0.04-0.06,0.08-0.11,0.11-0.17c0.06-0.09,0.12-0.18,0.18-0.27c0.07-0.11,0.13-0.23,0.19-0.35
			l32.15-42.87c0.12-0.11,0.2-0.19,0.28-0.27c0.09-0.1,0.17-0.18,0.25-0.26c0.34-0.31,0.66-0.53,0.97-0.67
			c0.03-0.01,0.07-0.03,0.11-0.05c0.34-0.13,0.72-0.19,1.18-0.21c0.13,0,0.24-0.02,0.33-0.04H148.23 M130.69,82.4
			c0.08,0,0.17-0.01,0.25-0.02c0.64-0.09,1.18-0.52,1.4-1.13l9.97-26.58c0.2-0.54,0.13-1.15-0.2-1.63
			c-0.33-0.48-0.87-0.76-1.45-0.76h-29.9c-0.67,0-1.28,0.38-1.58,0.98c-0.3,0.6-0.23,1.31,0.17,1.85l19.93,26.58
			C129.61,82.14,130.14,82.4,130.69,82.4 M69.31,82.4c0.55,0,1.08-0.26,1.41-0.71l19.93-26.58c0.4-0.54,0.47-1.25,0.17-1.85
			c-0.3-0.6-0.91-0.98-1.58-0.98h-29.9c-0.58,0-1.12,0.28-1.45,0.76c-0.33,0.48-0.4,1.08-0.2,1.63l9.97,26.58
			c0.23,0.6,0.76,1.04,1.4,1.13C69.14,82.39,69.23,82.4,69.31,82.4 M78.48,88.1h43.05c0.67,0,1.28-0.38,1.58-0.97
			c0.3-0.6,0.24-1.31-0.17-1.85l-21.52-28.69c-0.33-0.44-0.86-0.71-1.41-0.71c-0.56,0-1.08,0.26-1.41,0.71L77.06,85.28
			c-0.4,0.54-0.47,1.25-0.17,1.85C77.2,87.72,77.81,88.1,78.48,88.1 M140.04,88.1h29.9c0.67,0,1.28-0.38,1.58-0.97
			c0.3-0.6,0.23-1.31-0.17-1.85L151.42,58.7c-0.34-0.45-0.86-0.71-1.41-0.71c-0.08,0-0.17,0.01-0.25,0.02
			c-0.64,0.09-1.18,0.52-1.4,1.13l-9.97,26.58c-0.2,0.54-0.13,1.15,0.2,1.62C138.92,87.82,139.46,88.1,140.04,88.1 M30.06,88.1h29.9
			c0.58,0,1.12-0.28,1.45-0.76c0.33-0.48,0.41-1.08,0.2-1.62l-9.97-26.58c-0.23-0.6-0.76-1.04-1.4-1.13
			c-0.08-0.01-0.17-0.02-0.25-0.02c-0.55,0-1.08,0.26-1.41,0.71L28.65,85.28c-0.4,0.54-0.47,1.25-0.17,1.85
			C28.78,87.72,29.39,88.1,30.06,88.1 M114.49,156.24c0.48,0,0.95-0.19,1.29-0.56l53.79-57.38c0.48-0.51,0.61-1.26,0.33-1.91
			c-0.28-0.65-0.92-1.06-1.62-1.06h-32.28c-0.74,0-1.4,0.46-1.65,1.15l-21.52,57.37c-0.29,0.79,0.01,1.68,0.72,2.12
			C113.85,156.15,114.17,156.24,114.49,156.24 M100,164.24c0.74,0,1.4-0.46,1.65-1.15l24.52-65.38c0.2-0.54,0.13-1.15-0.2-1.63
			c-0.33-0.48-0.87-0.76-1.45-0.76H75.48c-0.58,0-1.12,0.28-1.45,0.76c-0.33,0.48-0.41,1.08-0.2,1.63l24.52,65.38
			C98.61,163.78,99.26,164.24,100,164.24 M85.51,156.24c0.32,0,0.64-0.09,0.93-0.26c0.71-0.45,1.02-1.33,0.72-2.12L65.65,96.48
			c-0.26-0.69-0.92-1.15-1.65-1.15H31.72c-0.7,0-1.34,0.42-1.62,1.06c-0.28,0.65-0.15,1.4,0.33,1.91l53.79,57.38
			C84.56,156.05,85.03,156.24,85.51,156.24 M148.62,41.06h-0.39H51.77h-0.38l-0.26,0.05c-0.85,0.05-1.59,0.2-2.28,0.46l-0.21,0.08
			l-0.19,0.1c-0.7,0.33-1.34,0.76-1.97,1.34c-0.21,0.19-0.38,0.37-0.5,0.51l-0.05,0.05l-0.26,0.24l-0.22,0.29L13.29,87.03
			l-0.27,0.37l-0.14,0.32c-0.01,0.02-0.03,0.04-0.04,0.05c-0.1,0.14-0.19,0.28-0.28,0.43l-0.31,0.52l-0.13,0.57
			c-0.11,0.32-0.17,0.59-0.21,0.78c-0.11,0.51-0.17,1.03-0.18,1.54c0,0.22-0.01,0.5,0.02,0.83l0,0.03l0,0.03
			c0.05,0.5,0.17,1.01,0.35,1.57c0.03,0.08,0.07,0.23,0.07,0.23l0.08,0.28l0.12,0.26c0.37,0.81,0.81,1.49,1.36,2.07l80.6,85.97
			l0.38,0.4l0.38,0.23l0.08,0.08l0.64,0.67l0.85,0.31l0.27,0.16l0.49,0.17l0.01,0c0.91,0.33,1.75,0.5,2.57,0.5
			c0.83,0,1.69-0.17,2.62-0.51l0.36-0.11l0.36-0.2l0,0l0.73-0.28l0.57-0.53c0.09-0.09,0.18-0.17,0.27-0.26l0.38-0.23l0.38-0.4
			l80.6-85.97c0.54-0.58,1-1.27,1.35-2.05l0.11-0.25l0.08-0.26l0.03-0.11l0.04-0.12c0.2-0.61,0.31-1.11,0.37-1.6
			c0.04-0.39,0.03-0.69,0.03-0.88c-0.01-0.53-0.07-1.04-0.18-1.57c-0.04-0.2-0.1-0.47-0.19-0.75l-0.01-0.04l-0.13-0.59l-0.36-0.58
			c-0.07-0.12-0.15-0.24-0.24-0.35c-0.01-0.02-0.02-0.03-0.03-0.05l-0.14-0.32l-0.27-0.36l-32.18-42.9l-2.41,1.65l2.08-2.03
			l-0.09-0.09l-0.09-0.09l0,0c-0.16-0.18-0.31-0.33-0.47-0.48l-0.02-0.02l-0.02-0.02c-0.59-0.54-1.2-0.95-1.85-1.26l-0.24-0.14
			l-0.34-0.12c-0.66-0.24-1.37-0.38-2.18-0.43L148.62,41.06L148.62,41.06z M115.23,56.29h22.21l-7.4,19.74L115.23,56.29
			L115.23,56.29z M62.57,56.29h22.21l-14.8,19.74L62.57,56.29L62.57,56.29z M82.95,84.1L100,61.37l17.05,22.73H82.95L82.95,84.1z
			 M143.27,84.1l7.4-19.74l14.8,19.74H143.27L143.27,84.1z M34.53,84.1l14.8-19.74l7.4,19.74H34.53L34.53,84.1z M137.55,99.33h25.57
			l-42.62,45.46L137.55,99.33L137.55,99.33z M78.71,99.33h42.58L100,156.11L78.71,99.33L78.71,99.33z M36.87,99.33h25.57
			l17.05,45.46L36.87,99.33L36.87,99.33z" class="st0"></path>
	</g>
	<g>
		<path d="M148.42,32.77c-3.1,0-5.61-2.52-5.61-5.62V16.39c0-3.1,2.52-5.61,5.61-5.61s5.61,2.52,5.61,5.61v10.76
			C154.04,30.25,151.52,32.77,148.42,32.77z" class="st0"></path>
		<path d="M148.42,12.78c1.99,0,3.61,1.62,3.61,3.61v10.76c0,1.99-1.62,3.62-3.61,3.62c-1.99,0-3.61-1.62-3.61-3.62
			V16.39C144.81,14.4,146.43,12.78,148.42,12.78 M148.42,8.78c-4.2,0-7.61,3.42-7.61,7.61v10.76c0,4.2,3.42,7.62,7.61,7.62
			c4.2,0,7.61-3.42,7.61-7.62V16.39C156.04,12.19,152.62,8.78,148.42,8.78L148.42,8.78z" class="st0"></path>
	</g>
	<g>
		<path d="M169.94,48.91c-3.1,0-5.62-2.52-5.62-5.61s2.52-5.61,5.62-5.61h10.76c3.1,0,5.61,2.52,5.61,5.61
			s-2.52,5.61-5.61,5.61H169.94z" class="st0"></path>
		<path d="M180.7,39.68c1.99,0,3.61,1.62,3.61,3.61c0,1.99-1.62,3.61-3.61,3.61h-10.76c-1.99,0-3.61-1.62-3.61-3.61
			c0-1.99,1.62-3.61,3.61-3.61H180.7 M180.7,35.68h-10.76c-4.2,0-7.61,3.42-7.61,7.61s3.42,7.61,7.61,7.61h10.76
			c4.2,0,7.61-3.42,7.61-7.61S184.9,35.68,180.7,35.68L180.7,35.68z" class="st0"></path>
	</g>
	<g>
		<path d="M19.3,48.91c-3.1,0-5.61-2.52-5.61-5.61s2.52-5.61,5.61-5.61h10.76c3.1,0,5.61,2.52,5.61,5.61
			s-2.52,5.61-5.61,5.61H19.3z" class="st0"></path>
		<path d="M30.06,39.68c1.99,0,3.61,1.62,3.61,3.61c0,1.99-1.62,3.61-3.61,3.61H19.3c-1.99,0-3.61-1.62-3.61-3.61
			c0-1.99,1.62-3.61,3.61-3.61H30.06 M30.06,35.68H19.3c-4.2,0-7.61,3.42-7.61,7.61s3.42,7.61,7.61,7.61h10.76
			c4.2,0,7.61-3.42,7.61-7.61S34.26,35.68,30.06,35.68L30.06,35.68z" class="st0"></path>
	</g>
	<g>
		<path d="M51.58,32.77c-3.1,0-5.61-2.52-5.61-5.62V16.39c0-3.1,2.52-5.61,5.61-5.61s5.61,2.52,5.61,5.61v10.76
			C57.19,30.25,54.67,32.77,51.58,32.77z" class="st0"></path>
		<path d="M51.58,12.78c1.99,0,3.61,1.62,3.61,3.61v10.76c0,1.99-1.62,3.62-3.61,3.62c-1.99,0-3.61-1.62-3.61-3.62
			V16.39C47.96,14.4,49.59,12.78,51.58,12.78 M51.58,8.78c-4.2,0-7.61,3.42-7.61,7.61v10.76c0,4.2,3.42,7.62,7.61,7.62
			c4.2,0,7.61-3.42,7.61-7.62V16.39C59.19,12.19,55.78,8.78,51.58,8.78L51.58,8.78z" class="st0"></path>
	</g>
</g>
</svg>
