<svg viewBox="0 0 200 200" xmlns="http://www.w3.org/2000/svg" id="Layer_1"><defs><style>.cls-1{stroke-width:4px;}.cls-1,.cls-2,.cls-3{fill:#fff;stroke:#fff;stroke-miterlimit:10;}.cls-2{stroke-width:3.74px;}.cls-3{stroke-width:3.77px;}</style></defs><path d="M100,185c-5.6,0-10.16-3.85-14.56-7.58-3.01-2.54-5.84-4.94-8.68-5.86-2.89-.94-6.64-.67-10.61-.39-5.72.41-11.63.83-16.1-2.41-4.42-3.2-5.84-8.92-7.22-14.46-.93-3.72-1.88-7.56-3.71-10.07-1.71-2.35-4.82-4.28-8.12-6.32-4.95-3.06-10.06-6.23-11.82-11.66-1.76-5.43.51-10.99,2.71-16.38,1.47-3.59,2.85-6.98,2.85-9.88,0-3.1-1.48-6.77-2.92-10.32-2.14-5.29-4.34-10.75-2.65-15.94,1.71-5.25,6.74-8.38,11.61-11.41,3.38-2.1,6.56-4.09,8.35-6.55,1.75-2.42,2.64-6.03,3.58-9.85,1.38-5.61,2.8-11.4,7.33-14.69,4.34-3.15,10.16-2.74,15.79-2.35,3.88.27,7.89.55,10.93-.44,3.04-.99,6.12-3.57,9.1-6.07,4.32-3.63,8.79-7.38,14.15-7.38h0c5.6,0,10.16,3.85,14.56,7.58,3.01,2.54,5.84,4.94,8.68,5.86,2.89.94,6.64.67,10.61.39,5.72-.41,11.63-.83,16.1,2.41,4.42,3.2,5.84,8.92,7.22,14.46.93,3.72,1.88,7.56,3.71,10.07,1.71,2.35,4.82,4.28,8.12,6.32,4.95,3.06,10.06,6.23,11.82,11.66,1.76,5.43-.51,10.99-2.71,16.38-1.47,3.59-2.85,6.98-2.85,9.88,0,3.1,1.48,6.77,2.92,10.32,2.14,5.29,4.34,10.75,2.65,15.94-1.71,5.25-6.74,8.38-11.61,11.41-3.38,2.1-6.56,4.09-8.35,6.55-1.75,2.42-2.64,6.03-3.58,9.85-1.38,5.61-2.8,11.4-7.33,14.69-4.34,3.15-10.16,2.74-15.79,2.35-3.88-.27-7.89-.55-10.93.44-3.04.99-6.12,3.57-9.1,6.07-4.32,3.63-8.79,7.38-14.15,7.38h0ZM71.55,165.93c2.35,0,4.64.21,6.75.9,3.76,1.23,7.11,4.06,10.35,6.8,3.9,3.29,7.58,6.4,11.35,6.4h0c3.55,0,7.14-3.02,10.95-6.22,3.34-2.8,6.8-5.7,10.76-6.99,3.96-1.29,8.46-.97,12.81-.67,4.96.35,9.64.68,12.51-1.41,3.06-2.22,4.2-6.9,5.42-11.85,1.01-4.12,2.06-8.38,4.38-11.58,2.36-3.25,6.12-5.59,9.75-7.85,4.3-2.68,8.36-5.2,9.51-8.73,1.13-3.47-.65-7.87-2.53-12.54-1.61-3.99-3.28-8.12-3.28-12.19,0-3.88,1.64-7.89,3.22-11.77,1.95-4.76,3.79-9.26,2.59-12.96-1.2-3.69-5.33-6.25-9.71-8.96-3.56-2.2-7.24-4.48-9.52-7.62-2.39-3.29-3.47-7.61-4.51-11.79-1.22-4.88-2.37-9.49-5.32-11.63-3-2.17-7.77-1.83-12.82-1.47-4.27.31-8.68.62-12.5-.62-3.76-1.23-7.11-4.06-10.35-6.8-3.9-3.29-7.58-6.4-11.35-6.4h0c-3.55,0-7.14,3.02-10.95,6.22-3.34,2.8-6.8,5.7-10.76,6.99-3.96,1.29-8.46.97-12.81.67-4.96-.35-9.64-.67-12.51,1.41-3.06,2.22-4.2,6.9-5.42,11.85-1.01,4.12-2.06,8.38-4.38,11.58-2.36,3.25-6.12,5.59-9.75,7.85-4.3,2.68-8.36,5.2-9.51,8.73-1.13,3.47.65,7.87,2.53,12.54,1.61,3.99,3.28,8.12,3.28,12.19,0,3.88-1.64,7.89-3.22,11.77-1.95,4.76-3.79,9.26-2.59,12.96,1.2,3.69,5.33,6.25,9.71,8.96,3.56,2.2,7.24,4.48,9.52,7.62,2.39,3.29,3.47,7.61,4.51,11.79,1.22,4.88,2.37,9.49,5.32,11.63,3,2.18,7.77,1.84,12.82,1.47,1.91-.14,3.85-.28,5.75-.28Z" class="cls-1"></path><path d="M100,159.45c-32.78,0-59.45-26.67-59.45-59.45s26.67-59.45,59.45-59.45,59.45,26.67,59.45,59.45-26.67,59.45-59.45,59.45ZM100,45.25c-30.19,0-54.75,24.56-54.75,54.75s24.56,54.75,54.75,54.75,54.75-24.56,54.75-54.75-24.56-54.75-54.75-54.75Z" class="cls-3"></path><path d="M95.11,124.77c-1.08,0-2.16-.39-3.01-1.16l-23.56-21.33c-1.84-1.66-1.98-4.5-.31-6.34,1.66-1.84,4.5-1.98,6.34-.31l20.45,18.52,32.3-31.09c1.79-1.72,4.63-1.67,6.35.12,1.72,1.79,1.66,4.63-.12,6.35l-35.32,34c-.87.84-1.99,1.25-3.11,1.25Z" class="cls-2"></path></svg>