<svg viewBox="0 0 200 200" xmlns="http://www.w3.org/2000/svg" id="Layer_1"><defs><style>.cls-1{fill:#57a1d1;stroke-width:0px;}</style></defs><path d="m164.8,158.51l-34.75-34.76c10.34-14.56,8.97-34.86-4.08-47.91-14.56-14.57-38.18-14.57-52.76,0-14.56,14.57-14.56,38.18,0,52.76,12.69,12.69,32.23,14.32,46.69,4.92l34.95,34.95c3.68,3.67,8.79,4.52,11.43,1.88l.41-.41c2.64-2.63,1.79-7.75-1.89-11.43Zm-84.94-36.56c-10.89-10.89-10.89-28.57,0-39.46,10.91-10.89,28.57-10.89,39.46,0,10.91,10.89,10.91,28.57,0,39.46-10.89,10.89-28.55,10.89-39.46,0Z" class="cls-1"></path><path d="m182.28,28.12H17.87c-1.5,0-2.72,1.22-2.72,2.72v118.29c0,1.5,1.22,2.72,2.72,2.72h164.41c1.5,0,2.72-1.22,2.72-2.72V30.84c0-1.5-1.22-2.72-2.72-2.72Zm-2.72,118.29H20.59V53.85h158.96v92.55Zm0-98H20.59v-14.84h158.96v14.84Z" class="cls-1"></path><path d="m15.14,50.27v1.72c-.09-.27-.14-.56-.14-.86s.05-.59.14-.86Z" class="cls-1"></path><circle r="2.72" cy="40.88" cx="26.66" class="cls-1"></circle><circle r="2.72" cy="40.88" cx="35.71" class="cls-1"></circle><circle r="2.72" cy="40.88" cx="44.62" class="cls-1"></circle></svg>