<svg viewBox="0 0 200 200" xmlns="http://www.w3.org/2000/svg" id="Layer_1"><defs><style>.cls-1{fill:#fff;stroke:#fff;stroke-miterlimit:10;stroke-width:5px;}</style></defs><path d="M182.27,133.26l-14.33-11.92c-.5-.42-1.14-.61-1.8-.55-.64.07-1.24.4-1.63.91l-2.7,3.47-10.44-12.29c-4.67-5.49-11.74-8.45-18.92-7.9l-50.4,3.82c-3.98.3-7.7,2.22-10.22,5.27-.85,1.04-1.53,2.16-2.02,3.33l-31.24-22.65c-6.14-4.45-14.91-3.3-19.16,2.5-1.67,2.28-2.55,5-2.55,7.89,0,3.92,1.72,7.63,4.71,10.16l37.94,32.17c3.93,3.28,8.9,5.08,14,5.08h54.9c.61,0,1.21.23,1.67.65l5.74,5.34-2.85,3.66c-.8,1.03-.63,2.5.36,3.32l14.33,11.92c.43.36.98.56,1.54.56.09,0,.17,0,.26,0,.64-.08,1.23-.4,1.63-.91l31.54-40.49c.8-1.03.63-2.5-.36-3.32ZM133.35,149.69c-1.34-1.25-3.1-1.94-4.94-1.94h-54.9c-3.98,0-7.87-1.4-10.91-3.96l-37.93-32.15c-1.91-1.62-3.01-4-3.01-6.5,0-1.85.57-3.6,1.62-5.04,2.68-3.65,8.51-4.33,12.47-1.45l33.11,24c0,.31.04.62.08.93.34,2.9,1.61,5.53,3.7,7.62,2.41,2.41,5.63,3.74,9.07,3.74h36.62c1.33,0,2.4-1.08,2.4-2.4s-1.08-2.4-2.4-2.4h-36.62c-2.16,0-4.17-.83-5.68-2.33-1.31-1.31-2.11-2.96-2.31-4.76-.24-2.08.41-4.18,1.83-5.91,1.66-2.02,4.24-3.34,6.88-3.53l50.39-3.82c5.65-.43,11.23,1.89,14.91,6.22l11.08,13.05-20.02,25.69-5.44-5.05ZM148.82,172.17l-10.63-8.86,2.64-3.39h0s.25-.34.25-.34l.03-.04,25.66-32.93,10.63,8.85-28.59,36.71Z" class="cls-1"></path><path d="M121.69,98.29c-.39,0-.79-.1-1.15-.29l-22.08-12-22.08,12c-.81.44-1.81.38-2.56-.17-.75-.54-1.12-1.47-.95-2.38l4.59-24.71-18.23-17.29c-.67-.64-.92-1.6-.63-2.48.29-.88,1.05-1.52,1.97-1.64l24.92-3.27,10.81-22.69c.4-.84,1.24-1.37,2.17-1.37s1.77.53,2.17,1.37l10.81,22.69,24.92,3.27c.92.12,1.69.76,1.97,1.64.29.88.04,1.85-.63,2.48l-18.23,17.29,4.59,24.71c.17.91-.2,1.84-.95,2.38-.42.3-.91.46-1.41.46ZM66.18,53.43l15.53,14.72c.59.56.86,1.38.71,2.18l-3.91,21.04,18.8-10.22c.71-.39,1.58-.39,2.29,0l18.8,10.22-3.91-21.04c-.15-.8.12-1.62.71-2.18l15.53-14.72-21.21-2.79c-.81-.11-1.51-.61-1.86-1.35l-9.21-19.32-9.21,19.32c-.35.73-1.05,1.24-1.86,1.35l-21.21,2.79Z" class="cls-1"></path></svg>