<svg viewBox="0 0 200 200" xmlns="http://www.w3.org/2000/svg" id="Layer_1"><defs><style>.cls-1{fill:#fff;stroke:#fff;stroke-miterlimit:10;stroke-width:5px;}</style></defs><path d="M187.19,106.98c-1.91-3.47-6.16-8.25-15.58-11.53l-5.41-25.49-.07-.32-3.09-14.6s-.02-.09-.03-.14c-.63-2.28-2.73-6.11-9.78-6.11H62.86c-5.37,0-10.48,4.19-11.62,9.54l-1.1,5.14c-.28,1.35.58,2.68,1.93,2.97,1.34.28,2.68-.57,2.97-1.93l1.09-5.13c.65-3.03,3.73-5.59,6.73-5.59h90.37c4.15,0,4.74,1.66,4.94,2.37l2.48,11.72h-24.57c-1.18,0-2.2.83-2.44,1.98l-5.82,27.24c-.15.74.03,1.51.51,2.1.47.58,1.18.92,1.94.92h39.55c7.67,2.64,11.11,6.29,12.6,8.61l-2.81,23.07h-11.71c.12-3.52-.91-6.77-3.02-9.37-2.63-3.25-6.59-5.04-11.15-5.04-8.39,0-16.67,6.3-19.37,14.41h-49.43c.12-3.52-.91-6.77-3.02-9.37-2.62-3.25-6.58-5.04-11.13-5.04-8.4,0-16.69,6.3-19.4,14.41h-6.23c-1.22,0-2.24-.43-2.88-1.23-.68-.83-.9-2.01-.62-3.31l2.71-12.7c.29-1.35-.57-2.68-1.93-2.96-1.34-.29-2.67.57-2.96,1.92l-2.71,12.7c-.59,2.76,0,5.49,1.62,7.5,1.61,1.99,4.01,3.08,6.77,3.08h5.3c-.12,3.52.91,6.77,3.02,9.37,2.63,3.25,6.59,5.04,11.16,5.04s9.03-1.84,12.64-4.81c3.07-2.52,5.5-5.87,6.74-9.6h49.42c-.12,3.52.91,6.78,3.01,9.38,2.63,3.24,6.59,5.03,11.14,5.03s9.1-1.8,12.69-4.75c3.07-2.52,5.47-5.87,6.71-9.66h14.85c1.26,0,2.33-.94,2.48-2.2l3.17-26.11c.06-.52-.04-1.05-.29-1.51ZM133.36,95.12l4.74-22.24h23.61l4.72,22.24h-33.07ZM79.69,133.7s-.01.05-.02.08c-.01.03-.01.07-.02.1-1.52,6.8-8.22,12.33-15.02,12.33-3.03,0-5.61-1.13-7.28-3.19-1.71-2.11-2.29-4.99-1.64-8.12,0-.06.02-.12.03-.18,1.51-6.8,8.23-12.33,15.04-12.33,3.01,0,5.59,1.13,7.25,3.19,1.72,2.11,2.3,5,1.66,8.12ZM162.65,133.7c-.02.06-.03.12-.04.18-1.51,6.8-8.22,12.33-15.03,12.33-3.02,0-5.59-1.13-7.25-3.18-1.73-2.13-2.3-5.05-1.63-8.21v-.02c1.47-6.84,8.21-12.41,15.03-12.41,3.02,0,5.6,1.13,7.26,3.19,1.72,2.11,2.3,4.99,1.66,8.12Z" class="cls-1"></path><path d="M57.29,105.2h-31.78c-1.38,0-2.5-1.12-2.5-2.5s1.12-2.5,2.5-2.5h31.78c1.38,0,2.5,1.12,2.5,2.5s-1.12,2.5-2.5,2.5Z" class="cls-1"></path><path d="M73.88,77.84h-34.65c-1.38,0-2.5-1.12-2.5-2.5s1.12-2.5,2.5-2.5h34.65c1.38,0,2.5,1.12,2.5,2.5s-1.12,2.5-2.5,2.5Z" class="cls-1"></path><path d="M81.44,91.52H15c-1.38,0-2.5-1.12-2.5-2.5s1.12-2.5,2.5-2.5h66.44c1.38,0,2.5,1.12,2.5,2.5s-1.12,2.5-2.5,2.5Z" class="cls-1"></path></svg>