<svg viewBox="0 0 200 200" xmlns="http://www.w3.org/2000/svg" id="Layer_1"><defs><style>.cls-1{fill:#57a1d1;stroke-width:0px;}</style></defs><path d="m148.63,94.07c-20.09,0-36.37,16.29-36.37,36.37s16.29,36.37,36.37,36.37,36.37-16.29,36.37-36.37-16.29-36.37-36.37-36.37Zm20.44,39.05h-17.75v17.75c0,1.48-1.2,2.68-2.68,2.68s-2.68-1.2-2.68-2.68v-17.75h-17.75c-1.48,0-2.68-1.2-2.68-2.68s1.2-2.68,2.68-2.68h17.75v-17.75c0-1.48,1.2-2.68,2.68-2.68s2.68,1.2,2.68,2.68v17.75h17.75c1.48,0,2.68,1.2,2.68,2.68s-1.2,2.68-2.68,2.68Z" class="cls-1"></path><path d="m101.34,144.03H17.68c-1.48,0-2.68-1.2-2.68-2.68V35.87c0-1.48,1.2-2.68,2.68-2.68h134.58c1.48,0,2.68,1.2,2.68,2.68v47.29c0,1.48-1.2,2.68-2.68,2.68s-2.68-1.2-2.68-2.68v-44.6H20.36v100.12h80.98c1.48,0,2.68,1.2,2.68,2.68s-1.2,2.68-2.68,2.68Z" class="cls-1"></path><path d="m117.78,95.96c-1.04,1.05-2.75,1.05-3.79,0l-12.66-12.65-21.67,21.68,5.37,5.37c1.05,1.04,1.05,2.74,0,3.79-1.04,1.05-2.75,1.05-3.79,0l-7.18-7.18-.19-.19-8.92-8.92-30.85,30.85c-.51.53-1.2.78-1.89.78s-1.37-.26-1.9-.78c-1.05-1.05-1.05-2.75,0-3.8l32.73-32.73c1.01-1.01,2.79-1.01,3.79,0l9.02,9.02,23.56-23.57c1.05-1.04,2.75-1.04,3.8,0l14.54,14.55c1.05,1.05,1.05,2.75,0,3.79Z" class="cls-1"></path><path d="m50.42,82.2c-7.5,0-13.59-6.1-13.59-13.59s6.1-13.59,13.59-13.59,13.59,6.1,13.59,13.59-6.1,13.59-13.59,13.59Zm0-21.82c-4.54,0-8.23,3.69-8.23,8.23s3.69,8.23,8.23,8.23,8.23-3.69,8.23-8.23-3.69-8.23-8.23-8.23Z" class="cls-1"></path></svg>